<svg id="Layer_1" data-name="Layer 1" xmlns="http://www.w3.org/2000/svg" xmlns:xlink="http://www.w3.org/1999/xlink" viewBox="0 0 293 293"><defs><style>.cls-1,.cls-5{fill:none;}.cls-2{clip-path:url(#clip-path);}.cls-3,.cls-4{fill:#fff;}.cls-4{font-size:37.16px;font-family:FlorencesansSCBlack-Italic, Florencesans SC Black;font-style:italic;}.cls-5{stroke:#fff;stroke-miterlimit:10;stroke-width:2.61px;}</style><clipPath id="clip-path"><rect class="cls-1" x="45.05" y="33.37" width="191.67" height="95.84"/></clipPath></defs><title>Mojito Limón Negro copy 6</title><rect y="223.7" width="293" height="69.68"/><path d="M48.33,183.64v-29l-10.56,29H29.59L19,154.47v29.17H10.07v-47.5H21.75L33.65,169l12-32.81H57.29v47.5Z"/><path d="M113.17,169.44a22.94,22.94,0,0,1-5.5,8,22.91,22.91,0,0,1-8,5.49,25.28,25.28,0,0,1-9.58,1.78,23.92,23.92,0,0,1-17.56-7.27,23.52,23.52,0,0,1-7.35-17.56A25,25,0,0,1,90.12,135a23.62,23.62,0,0,1,17.55,7.28A23.93,23.93,0,0,1,115,159.86,25.28,25.28,0,0,1,113.17,169.44Zm-11.86-20.77A15.27,15.27,0,0,0,90.12,144a15.12,15.12,0,0,0-11.2,4.69,15.31,15.31,0,0,0-4.75,11.19,16.24,16.24,0,0,0,16,15.95A16.14,16.14,0,0,0,106,159.86,15.59,15.59,0,0,0,101.31,148.67Z"/><path d="M150.78,174.51a17.86,17.86,0,0,1-3.63,5.35,15.79,15.79,0,0,1-11.69,4.83,13.83,13.83,0,0,1-4.37-.7,18.31,18.31,0,0,1-4.13-2,19.62,19.62,0,0,1-3.7-3,21.92,21.92,0,0,1-3.05-4l7.91-4.13q3.15,5,7.34,5a7.38,7.38,0,0,0,5.39-2.31v.07a7.43,7.43,0,0,0,2.24-5.46V145H131.9v-8.89H152v32A15.89,15.89,0,0,1,150.78,174.51Z"/><path d="M161.94,183.64v-47.5h8.89v47.5Z"/><path d="M200.07,145v38.61h-9V145H176.77v-8.89h37.57V145Z"/><path d="M266.84,169.44a26.64,26.64,0,0,1-13.47,13.47,25.28,25.28,0,0,1-9.58,1.78,23.92,23.92,0,0,1-17.56-7.27,23.52,23.52,0,0,1-7.35-17.56,24.87,24.87,0,0,1,49.74,0A25.28,25.28,0,0,1,266.84,169.44ZM255,148.67A15.27,15.27,0,0,0,243.79,144a15.12,15.12,0,0,0-11.2,4.69,15.31,15.31,0,0,0-4.75,11.19,16.24,16.24,0,0,0,15.95,15.95,16.14,16.14,0,0,0,15.88-15.95A15.59,15.59,0,0,0,255,148.67Z"/><g class="cls-2"><circle cx="140.51" cy="129.57" r="94.15" transform="translate(-34.13 207.23) rotate(-66.65)"/><circle cx="140.52" cy="129.57" r="90.15" transform="translate(-0.7 0.77) rotate(-0.31)"/><path class="cls-3" d="M228.67,129.09A88.16,88.16,0,1,1,140,41.41,88.15,88.15,0,0,1,228.67,129.09Z"/><path d="M81.26,185.73A4.37,4.37,0,0,1,78,184.3a81.71,81.71,0,0,1-20.91-49.72,4.29,4.29,0,0,1,1.16-3.23A4.41,4.41,0,0,1,61.47,130l66.65-.36a4.36,4.36,0,0,1,3.13,7.44L84.38,184.43a4.4,4.4,0,0,1-3.12,1.3Z"/><path class="cls-3" d="M128.15,131a3,3,0,0,1,2.12,5.1L83.4,183.46a3,3,0,0,1-2.14.89,3,3,0,0,1-2.2-1A79.91,79.91,0,0,1,58.5,134.49a3,3,0,0,1,3-3.15l66.65-.37h0m0-2.75h0l-66.65.36a5.76,5.76,0,0,0-5.71,6.08A83.1,83.1,0,0,0,77,185.22a5.75,5.75,0,0,0,8.34.17L132.23,138a5.75,5.75,0,0,0-4.08-9.79Z"/><path d="M135.13,121.58a4.34,4.34,0,0,1-3.06-1.27L84.69,73.44a4.38,4.38,0,0,1-1.3-3.22,4.3,4.3,0,0,1,1.43-3.13,81.77,81.77,0,0,1,49.72-20.91h.27a4.36,4.36,0,0,1,4.34,4.35l.37,66.65a4.36,4.36,0,0,1-1.25,3.09,4.47,4.47,0,0,1-3.14,1.31Z"/><path class="cls-3" d="M134.8,47.55a3,3,0,0,1,3,3l.36,66.65a3,3,0,0,1-3,3,3,3,0,0,1-2.09-.87L85.66,72.46a3,3,0,0,1,.08-4.35,79.92,79.92,0,0,1,48.88-20.55h.18m0-2.75h-.35A83.17,83.17,0,0,0,83.89,66.07a5.74,5.74,0,0,0-.17,8.34l47.39,46.88a5.68,5.68,0,0,0,4,1.66,5.82,5.82,0,0,0,4.11-1.71,5.64,5.64,0,0,0,1.65-4.07l-.36-66.65a5.75,5.75,0,0,0-5.73-5.72Z"/><path d="M61.45,130a4.42,4.42,0,0,1-3.18-1.36,4.29,4.29,0,0,1-1.19-3.2A81.7,81.7,0,0,1,77.45,75.52a4.35,4.35,0,0,1,6.33-.2l47.39,46.87a4.37,4.37,0,0,1-3,7.48Z"/><path class="cls-3" d="M80.7,75.43a3,3,0,0,1,2.12.87l47.38,46.87a3,3,0,0,1-2.09,5.12l-66.65.36h0a3,3,0,0,1-3-3.12,79.89,79.89,0,0,1,20-49.1,3,3,0,0,1,2.22-1m0-2.75a5.73,5.73,0,0,0-4.29,1.93A83.12,83.12,0,0,0,55.7,125.4a5.74,5.74,0,0,0,5.74,6l66.69-.36a5.75,5.75,0,0,0,4-9.84L84.75,74.34a5.72,5.72,0,0,0-4-1.66Z"/><path d="M145.77,121.52a4.34,4.34,0,0,1-4.39-4.35L141,50.52a4.38,4.38,0,0,1,1.28-3.12,4.29,4.29,0,0,1,3.08-1.28h.21a81.78,81.78,0,0,1,49.95,20.37A4.31,4.31,0,0,1,197,69.6a4.41,4.41,0,0,1-1.26,3.23l-46.88,47.39a4.3,4.3,0,0,1-3.08,1.3Z"/><path class="cls-3" d="M145.36,47.49h.15a79.94,79.94,0,0,1,49.11,20,3,3,0,0,1,.13,4.34l-46.88,47.39a2.9,2.9,0,0,1-2.1.89,3,3,0,0,1-3-3l-.36-66.65a3,3,0,0,1,3-3m0-2.75a5.74,5.74,0,0,0-5.72,5.78l.36,66.65a5.78,5.78,0,0,0,5.77,5.73,5.65,5.65,0,0,0,4.06-1.72L196.7,73.8a5.73,5.73,0,0,0-.26-8.34,83.09,83.09,0,0,0-50.79-20.71Z"/><path d="M200.33,185.08a4.36,4.36,0,0,1-3.09-1.27l-47.38-46.87a4.37,4.37,0,0,1,3-7.48l66.65-.36a4.45,4.45,0,0,1,3.2,1.36,4.29,4.29,0,0,1,1.19,3.21,81.69,81.69,0,0,1-20.37,49.94,4.35,4.35,0,0,1-3.25,1.47Z"/><path class="cls-3" d="M219.59,130.48a3,3,0,0,1,3,3.12,79.87,79.87,0,0,1-20,49.1,2.93,2.93,0,0,1-2.22,1,3,3,0,0,1-2.12-.87L150.83,136a3,3,0,0,1,2.09-5.12l66.65-.36h0m0-2.76h0l-66.65.37a5.74,5.74,0,0,0-4,9.83l47.39,46.87a5.75,5.75,0,0,0,8.34-.27,83.18,83.18,0,0,0,20.71-50.78,5.74,5.74,0,0,0-5.74-6Z"/><path d="M152.88,129.53a4.36,4.36,0,0,1-3.1-7.44l46.87-47.38a4.38,4.38,0,0,1,6.34.12,81.79,81.79,0,0,1,20.91,49.73,4.27,4.27,0,0,1-1.16,3.22,4.41,4.41,0,0,1-3.18,1.39Z"/><path class="cls-3" d="M199.77,74.78a3,3,0,0,1,2.2,1,79.91,79.91,0,0,1,20.56,48.88,3,3,0,0,1-3,3.15l-66.65.37h0a3,3,0,0,1-2.12-5.1l46.87-47.39a3,3,0,0,1,2.14-.89m0-2.75a5.74,5.74,0,0,0-4.1,1.71L148.8,121.12a5.75,5.75,0,0,0,4.08,9.79l66.69-.36a5.76,5.76,0,0,0,5.71-6.08A83.16,83.16,0,0,0,204,73.91,5.75,5.75,0,0,0,199.77,72Z"/><path d="M146.23,213a4.38,4.38,0,0,1-4.36-4.35L141.51,142a4.37,4.37,0,0,1,1.25-3.1,4.46,4.46,0,0,1,3.14-1.3,4.3,4.3,0,0,1,3,1.27l47.39,46.87a4.38,4.38,0,0,1,1.3,3.21,4.3,4.3,0,0,1-1.43,3.13A81.74,81.74,0,0,1,146.49,213Z"/><path class="cls-3" d="M145.9,138.93a3,3,0,0,1,2.09.87l47.38,46.88a3,3,0,0,1-.08,4.34,79.86,79.86,0,0,1-48.88,20.55h-.18a3,3,0,0,1-3-3L142.89,142a3,3,0,0,1,3-3m0-2.75a5.82,5.82,0,0,0-4.11,1.71,5.66,5.66,0,0,0-1.65,4.07l.36,66.66a5.75,5.75,0,0,0,5.73,5.71h.34a83.15,83.15,0,0,0,50.57-21.26,5.74,5.74,0,0,0,.17-8.34l-47.39-46.87a5.65,5.65,0,0,0-4-1.67Z"/><path d="M135.45,213A81.78,81.78,0,0,1,85.5,192.64,4.31,4.31,0,0,1,84,189.53a4.41,4.41,0,0,1,1.26-3.23l46.88-47.38a4.36,4.36,0,0,1,7.47,3.05l.37,66.65a4.37,4.37,0,0,1-1.28,3.11,4.3,4.3,0,0,1-3.08,1.28Z"/><path class="cls-3" d="M135.26,139a3,3,0,0,1,3,3l.36,66.66a3,3,0,0,1-3,3h-.14a79.88,79.88,0,0,1-49.11-20,3,3,0,0,1-.13-4.34l46.87-47.39a3,3,0,0,1,2.11-.89m0-2.75A5.64,5.64,0,0,0,131.2,138L84.32,185.33a5.74,5.74,0,0,0,.27,8.34,83.09,83.09,0,0,0,50.79,20.71h.28a5.74,5.74,0,0,0,5.73-5.78L141,142a5.77,5.77,0,0,0-5.77-5.72Z"/></g><circle cx="92.18" cy="159.39" r="18.02"/><circle cx="282.19" cy="159.39" r="4.1"/><polygon points="279.69 160.5 110.38 160.54 110.38 158.36 279.69 158.36 279.69 160.5"/><text class="cls-4" transform="translate(83.74 268.59)">SHIPPING</text><line class="cls-5" x1="42.68" y1="248.43" x2="79.55" y2="248.43"/><line class="cls-5" x1="39.68" y1="256.6" x2="76.55" y2="256.6"/><line class="cls-5" x1="36.68" y1="264.77" x2="73.55" y2="264.77"/></svg>