<svg xmlns="http://www.w3.org/2000/svg" xmlns:xlink="http://www.w3.org/1999/xlink" enable-background="new 0 0 500 500" height="277.1428527832031" version="1.1" width="502.28570556640625" xml:space="preserve"><rect id="backgroundrect" width="100%" height="100%" x="0" y="0" fill="none" stroke="none" class="" style=""/><g class="currentLayer" style=""><title>Layer 1</title><line fill="none" stroke="#130B7A" stroke-linecap="round" stroke-linejoin="round" stroke-miterlimit="2.6131" stroke-width="10" x1="133.08956909179688" x2="232.6345672607422" y1="12.4547119140625" y2="12.4547119140625" id="svg_1" class=""/><path d="M232.63457140302657,12.454713195800778 c7.22,0 13.136,5.94 13.136,13.112 " fill="none" stroke="#130B7A" stroke-linecap="round" stroke-linejoin="round" stroke-miterlimit="2.6131" stroke-width="10" id="svg_2" class=""/><line fill="none" stroke="#130B7A" stroke-linecap="round" stroke-linejoin="round" stroke-miterlimit="2.6131" stroke-width="10" x1="245.77056884765625" x2="245.77056884765625" y1="25.56671905517578" y2="208.16571044921875" id="svg_3" class=""/><path d="M245.7705714030266,208.16571319580078 c0,7.184 -5.94,13.111 -13.136,13.111 " fill="none" stroke="#130B7A" stroke-linecap="round" stroke-linejoin="round" stroke-miterlimit="2.6131" stroke-width="10" id="svg_4" class=""/><line fill="none" stroke="#130B7A" stroke-linecap="round" stroke-linejoin="round" stroke-miterlimit="2.6131" stroke-width="10" x1="232.6345672607422" x2="89.41957092285156" y1="221.27670288085938" y2="221.27670288085938" id="svg_5" class=""/><path d="M89.41957140302658,221.27671319580077 c-7.16,0 -13.112,-5.916 -13.112,-13.111 " fill="none" stroke="#130B7A" stroke-linecap="round" stroke-linejoin="round" stroke-miterlimit="2.6131" stroke-width="10" id="svg_6" class=""/><polyline fill="none" points="76.30756920576096,208.16571807861328 76.30756920576096,64.98571014404297 133.08956688642502,12.4547119140625 " stroke="#130B7A" stroke-linecap="round" stroke-linejoin="round" stroke-miterlimit="2.6131" stroke-width="10" id="svg_7" class=""/><line fill="none" stroke="#130B7A" stroke-linecap="round" stroke-linejoin="round" stroke-miterlimit="2.6131" stroke-width="10" x1="135.7695770263672" x2="135.7695770263672" y1="12.4547119140625" y2="59.72270965576172" id="svg_8" class=""/><path d="M135.7695714030266,59.72271319580079 c0,3.8520000000000003 -3.2,7.039 -7.039,7.039 " fill="none" stroke="#130B7A" stroke-linecap="round" stroke-linejoin="round" stroke-miterlimit="2.6131" stroke-width="10" id="svg_9" class=""/><line fill="none" stroke="#130B7A" stroke-linecap="round" stroke-linejoin="round" stroke-miterlimit="2.6131" stroke-width="10" x1="128.73057556152344" x2="76.30757141113281" y1="66.76171112060547" y2="66.76171112060547" id="svg_10" class=""/><g id="svg_11" class=""><path clip-rule="evenodd" d="M318.64557140302657,171.46171319580077 c4.117,3.43 6.182,8.741 6.182,15.865 c0,7.159 -2.125,12.411 -6.314,15.743 c-4.202,3.309 -10.637,4.999 -19.317,4.999 h-10.492 v17.325 h-9.973 v-59.1 h20.296 C307.99657140302656,166.2947131958008 314.5285714030266,168.0327131958008 318.64557140302657,171.46171319580077 L318.64557140302657,171.46171319580077 zM311.5945714030266,195.87471319580078 L311.5945714030266,195.87471319580078 c1.992,-2.137 2.981,-5.24 2.981,-9.333 s-1.255,-6.99 -3.791,-8.681000000000001 c-2.56,-1.6900000000000002 -6.507,-2.535 -11.952,-2.535 h-10.13 v23.688 h11.591 C305.81157140302656,199.0137131958008 309.5775714030266,197.9507131958008 311.5945714030266,195.87471319580078 z" fill="#130B7A" fill-rule="evenodd" id="svg_12"/><path clip-rule="evenodd" d="M381.2935714030266,174.04571319580077 c5.699,5.119 8.536,12.315 8.536,21.515 c0,9.164 -2.765,16.444 -8.271,21.805 c-5.529,5.361 -13.98,8.029 -25.378,8.029 h-19.619 v-59.1 h20.295 C367.4575714030266,166.2947131958008 375.60757140302655,168.85371319580076 381.2935714030266,174.04571319580077 L381.2935714030266,174.04571319580077 zM379.7735714030266,195.80271319580078 L379.7735714030266,195.80271319580078 c0,-13.522 -7.764,-20.308 -23.254,-20.308 h-9.973 v40.519 h11.071 c7.147,0 12.641,-1.703 16.456,-5.096 C377.8775714030266,207.48871319580076 379.7735714030266,202.46671319580076 379.7735714030266,195.80271319580078 z" fill="#130B7A" fill-rule="evenodd" id="svg_13"/><polygon clip-rule="evenodd" fill="#130B7A" fill-rule="evenodd" points="412.6485726237297,175.59171295166016 412.6485726237297,191.82971954345703 438.8715645670891,191.82971954345703 438.8715645670891,201.0417251586914 412.6485726237297,201.0417251586914 412.6485726237297,225.39371490478516 402.67558068037033,225.39371490478516 402.67558068037033,166.29471588134766 442.08357018232346,166.29471588134766 441.99857872724533,175.59171295166016 " id="svg_14"/></g><line clip-rule="evenodd" fill="none" fill-rule="evenodd" stroke="#130B7A" stroke-linecap="round" stroke-linejoin="round" stroke-miterlimit="2.6131" stroke-width="10" x1="279.2005615234375" x2="455.1345520019531" y1="131.54769897460938" y2="131.54769897460938" id="svg_15" class=""/><path clip-rule="evenodd" d="M455.1345714030266,131.54771319580078 c10.674,0 19.294,8.645 19.294,19.293 " fill="none" fill-rule="evenodd" stroke="#130B7A" stroke-linecap="round" stroke-linejoin="round" stroke-miterlimit="2.6131" stroke-width="10" id="svg_16" class=""/><line clip-rule="evenodd" fill="none" fill-rule="evenodd" stroke="#130B7A" stroke-linecap="round" stroke-linejoin="round" stroke-miterlimit="2.6131" stroke-width="10" x1="474.4285583496094" x2="474.4285583496094" y1="150.8406982421875" y2="240.84869384765625" id="svg_17" class=""/><path clip-rule="evenodd" d="M474.4285714030266,240.84871319580077 c0,10.648 -8.620000000000001,19.269 -19.294,19.269 " fill="none" fill-rule="evenodd" stroke="#130B7A" stroke-linecap="round" stroke-linejoin="round" stroke-miterlimit="2.6131" stroke-width="10" id="svg_18" class=""/><line clip-rule="evenodd" fill="none" fill-rule="evenodd" stroke="#130B7A" stroke-linecap="round" stroke-linejoin="round" stroke-miterlimit="2.6131" stroke-width="10" x1="455.1345520019531" x2="43.7215690612793" y1="260.11669921875" y2="260.11669921875" id="svg_19" class=""/><path clip-rule="evenodd" d="M43.72157140302658,260.1167131958008 c-10.648,0 -19.293,-8.620000000000001 -19.293,-19.269 " fill="none" fill-rule="evenodd" stroke="#130B7A" stroke-linecap="round" stroke-linejoin="round" stroke-miterlimit="2.6131" stroke-width="10" id="svg_20" class=""/><line clip-rule="evenodd" fill="none" fill-rule="evenodd" stroke="#130B7A" stroke-linecap="round" stroke-linejoin="round" stroke-miterlimit="2.6131" stroke-width="10" x1="24.428571701049805" x2="24.428571701049805" y1="240.84869384765625" y2="150.8406982421875" id="svg_21" class=""/><path clip-rule="evenodd" d="M24.42857140302658,150.8407131958008 c0,-10.648 8.645,-19.293 19.293,-19.293 " fill="none" fill-rule="evenodd" stroke="#130B7A" stroke-linecap="round" stroke-linejoin="round" stroke-miterlimit="2.6131" stroke-width="10" id="svg_22" class=""/><line clip-rule="evenodd" fill="none" fill-rule="evenodd" stroke="#130B7A" stroke-linecap="round" stroke-linejoin="round" stroke-miterlimit="2.6131" stroke-width="10" x1="162.77757263183594" x2="162.77757263183594" y1="73.15970611572266" y2="189.95870971679688" id="svg_23" class=""/><line clip-rule="evenodd" fill="none" fill-rule="evenodd" stroke="#130B7A" stroke-linecap="round" stroke-linejoin="round" stroke-miterlimit="2.6131" stroke-width="10" x1="162.77757263183594" x2="199.74557495117188" y1="189.95870971679688" y2="152.97671508789062" id="svg_24" class=""/><line clip-rule="evenodd" fill="none" fill-rule="evenodd" stroke="#130B7A" stroke-linecap="round" stroke-linejoin="round" stroke-miterlimit="2.6131" stroke-width="10" x1="162.77757263183594" x2="122.33157348632812" y1="189.95870971679688" y2="149.48870849609375" id="svg_25" class=""/></g></svg>